<?xml version="1.0" standalone="no"?>
<!DOCTYPE svg PUBLIC "-//W3C//DTD SVG 20010904//EN"
 "http://www.w3.org/TR/2001/REC-SVG-20010904/DTD/svg10.dtd">
<svg version="1.0" xmlns="http://www.w3.org/2000/svg"
 width="206.000000pt" height="206.000000pt" viewBox="0 0 206.000000 206.000000"
 preserveAspectRatio="xMidYMid meet">

<g transform="translate(0.000000,206.000000) scale(0.100000,-0.100000)"
fill="#000000" stroke="none">
<path d="M1 1598 l0 -463 19 85 c37 174 95 305 197 437 154 203 383 342 636
388 64 12 21 13 -390 14 l-463 1 1 -462z"/>
<path d="M1214 2044 c213 -42 392 -137 541 -288 154 -155 251 -342 290 -559
12 -64 13 -21 14 396 l1 467 -457 -1 c-416 -1 -452 -2 -389 -15z"/>
<path d="M848 2025 c-387 -73 -696 -367 -799 -760 -32 -122 -33 -350 -1 -467
31 -116 77 -217 142 -315 139 -211 353 -363 605 -429 83 -22 122 -27 230 -27
140 0 219 13 345 58 314 112 549 372 637 704 22 80 26 120 27 236 1 188 -30
315 -115 474 -136 253 -347 424 -626 507 -111 33 -323 42 -445 19z m101 -373
c23 -18 41 -30 41 -27 0 3 -16 29 -35 58 l-35 52 89 3 c332 11 551 -181 551
-483 0 -141 -45 -257 -134 -347 -101 -104 -211 -146 -396 -154 l-115 -5 30 25
c35 30 31 32 -20 10 -20 -8 -39 -13 -41 -11 -6 5 106 111 134 126 20 10 22 9
23 -11 1 -13 1 -26 0 -30 -2 -15 15 -8 57 23 23 17 46 28 51 25 14 -9 125 59
157 96 54 65 79 135 79 223 0 93 -21 148 -81 215 -60 66 -123 94 -221 96 -76
2 -85 4 -120 33 -21 17 -41 31 -46 31 -5 0 -6 -32 -2 -71 6 -59 4 -73 -10 -89
-9 -10 -14 -24 -10 -30 4 -6 -8 -27 -26 -48 -27 -30 -30 -38 -16 -40 23 -5 21
-25 -4 -48 -12 -10 -30 -31 -41 -46 l-19 -28 30 6 c41 8 40 -6 -4 -52 -19 -20
-35 -38 -35 -40 0 -2 21 6 46 17 25 12 48 19 50 16 3 -2 -1 -23 -9 -45 l-14
-40 34 -7 c40 -7 37 -16 -32 -93 -26 -29 -45 -52 -42 -52 2 0 31 16 63 35 66
40 84 43 84 16 0 -11 2 -26 6 -34 3 -9 -13 -25 -48 -47 -29 -18 -83 -52 -119
-75 -36 -24 -85 -53 -110 -65 l-44 -22 25 28 c78 89 76 90 -32 12 -36 -27 -68
-48 -70 -48 -3 0 8 25 24 56 15 31 28 70 28 86 0 22 15 47 60 96 32 36 57 68
55 70 -2 3 -22 -10 -45 -28 -30 -24 -40 -28 -41 -16 -4 131 -2 147 30 186 17
21 31 44 31 50 0 6 7 22 16 35 19 29 16 30 -33 10 -19 -8 -37 -15 -39 -15 -10
0 -2 20 20 53 25 36 25 50 0 40 -11 -4 -14 15 -14 108 l-1 114 -33 25 c-18 14
-61 48 -94 77 l-61 51 164 4 c148 3 166 5 192 24 l28 21 27 -36 c14 -20 45
-51 67 -69z m256 -191 c54 -24 66 -41 59 -80 -4 -17 -11 -34 -15 -37 -5 -3 -9
-13 -8 -22 0 -13 3 -12 11 6 6 12 15 22 20 22 4 0 8 7 8 15 0 8 4 15 8 15 13
0 31 -44 38 -92 6 -36 5 -41 -10 -35 -12 5 -15 3 -9 -6 4 -6 8 -44 9 -83 2
-68 1 -73 -26 -92 -15 -12 -36 -19 -46 -16 -29 7 -47 -11 -48 -48 -1 -18 -5
-34 -11 -35 -5 -1 -13 -12 -18 -25 -9 -22 -9 -22 -17 -3 -7 16 -9 17 -9 3 -1
-27 -20 -31 -30 -6 -7 17 -10 19 -10 6 -1 -23 -20 -23 -28 -1 -6 15 -7 14 -14
-3 -6 -18 -7 -18 -16 4 -5 13 -13 23 -18 23 -6 0 -10 15 -10 35 0 37 -23 61
-50 50 -8 -3 -18 0 -22 7 -5 7 -16 17 -26 22 -14 8 -19 24 -21 70 -2 33 1 70
5 83 6 16 6 21 -2 16 -9 -5 -10 4 -5 32 9 48 19 59 36 39 23 -27 30 -16 11 18
l-19 34 25 32 c14 17 41 40 61 51 49 25 143 26 197 1z m-316 -816 c-24 -70
-24 -75 6 -75 23 0 24 -2 13 -20 -7 -11 -20 -20 -29 -20 -12 0 -21 -15 -29
-50 -10 -43 -14 -48 -26 -35 -8 7 -14 27 -14 44 0 25 -3 29 -17 24 -10 -3 -30
-20 -45 -37 -28 -32 -32 -28 -28 24 1 14 10 32 20 40 10 8 23 26 30 38 21 42
81 101 96 95 7 -3 17 2 20 11 3 9 10 16 14 16 5 0 0 -25 -11 -55z m329 -8 c-5
-10 -7 -26 -3 -36 3 -10 -3 -28 -13 -42 -11 -13 -22 -34 -26 -46 -4 -13 -12
-22 -17 -20 -5 1 -18 -16 -29 -38 l-20 -40 4 45 c2 25 7 53 11 63 12 29 -21
20 -44 -12 -12 -16 -21 -33 -21 -38 0 -6 -9 -18 -19 -27 -18 -17 -19 -17 -25
2 -4 10 1 35 9 56 15 34 14 37 -1 34 -30 -5 -26 19 5 30 19 7 33 20 36 35 4
13 20 34 36 46 32 24 33 21 20 -27 -8 -28 -7 -32 10 -32 12 0 24 13 34 37 9
21 23 46 33 56 16 18 17 18 23 -5 3 -12 2 -31 -3 -41z m394 -17 c-6 -46 -52
-160 -63 -160 -5 0 -12 0 -15 1 -4 0 -11 -5 -15 -13 -16 -24 -9 7 16 82 14 41
37 87 52 102 15 15 22 28 15 28 -7 0 -9 7 -5 17 6 15 7 14 13 -3 4 -10 5 -35
2 -54z m-884 44 c41 -8 25 -31 -28 -38 -63 -8 -71 -22 -18 -30 39 -6 40 -8 22
-21 -11 -7 -36 -17 -55 -22 -50 -13 -51 -40 -1 -35 26 3 42 -1 51 -12 11 -13
9 -16 -16 -21 -51 -12 -98 -27 -110 -37 -8 -6 -21 -3 -38 8 l-27 17 26 14 c19
10 28 24 32 53 4 22 13 45 20 51 19 15 18 29 -2 29 -25 0 -10 24 27 42 31 15
51 15 117 2z m355 3 c17 -4 -31 -47 -52 -47 -17 0 -26 -11 -41 -47 -33 -81
-54 -118 -68 -118 -7 0 -17 -7 -22 -15 -23 -37 5 59 45 153 5 13 2 17 -14 17
-12 0 -21 4 -21 9 0 18 31 41 55 41 13 0 26 4 29 8 4 7 59 6 89 -1z m263 -5
c30 -11 49 -23 46 -30 -3 -10 2 -10 22 -1 14 7 26 18 26 25 0 18 33 26 63 15
50 -19 48 -99 -4 -169 -37 -50 -69 -61 -105 -37 -23 15 -26 22 -21 59 3 22 8
50 13 61 6 16 1 14 -28 -10 -34 -29 -35 -31 -20 -54 8 -13 24 -39 35 -58 l19
-34 -34 17 c-19 9 -43 29 -52 45 -19 32 -34 37 -43 14 -3 -9 -18 -22 -33 -30
l-27 -14 12 42 c6 23 19 59 29 80 9 22 15 44 13 50 -4 12 20 47 32 47 3 -1 29
-9 57 -18z m442 3 c28 0 52 -2 52 -5 0 -9 -68 -40 -88 -40 -17 0 -25 -13 -77
-122 -23 -51 -28 -56 -41 -44 -12 13 -11 23 10 80 23 61 24 66 7 66 -10 0 -18
7 -18 16 0 18 53 58 67 49 5 -3 10 -1 10 6 0 8 4 8 13 2 6 -6 36 -9 65 -8z
m-1301 -11 c3 -8 11 -14 18 -14 22 0 44 -35 43 -68 -1 -42 -41 -84 -103 -107
-25 -10 -45 -22 -45 -27 0 -6 -7 -8 -15 -4 -8 3 -26 1 -40 -4 -20 -8 -23 -7
-18 7 4 11 3 14 -5 9 -7 -4 -12 -2 -12 3 0 6 5 11 10 11 18 0 50 40 50 63 1
12 7 35 14 52 11 28 11 31 -12 42 -13 7 -34 13 -45 13 -34 0 -9 14 46 26 75
15 107 15 114 -2z m193 -294 c0 -5 -6 -10 -12 -10 -9 0 -8 -4 2 -10 10 -6 11
-10 3 -10 -19 0 -16 -18 5 -23 10 -3 6 -5 -10 -6 -24 -1 -28 3 -28 27 0 16 3
32 7 35 10 11 33 8 33 -3z m130 0 c12 -8 10 -10 -10 -10 l-25 -1 23 -10 c13
-5 22 -15 20 -21 -6 -16 -48 -23 -48 -9 0 6 7 8 15 5 8 -4 15 -2 15 4 0 5 -10
12 -22 15 -18 5 -19 8 -8 21 15 18 20 19 40 6z m124 4 c21 -8 20 -33 -1 -41
-10 -4 -21 -11 -25 -17 -4 -6 -8 3 -8 20 0 41 7 48 34 38z m146 -9 c18 -22 3
-55 -26 -55 -20 0 -24 5 -24 28 0 43 25 57 50 27z m137 -25 c1 -19 0 -29 -3
-22 -3 6 -12 12 -19 12 -7 0 -16 -6 -18 -12 -3 -7 -6 4 -6 25 -1 34 1 38 22
35 17 -2 22 -10 24 -38z m116 8 c-3 -18 -7 -35 -9 -37 -6 -7 -11 2 -17 37 -6
27 -4 32 13 32 17 0 19 -5 13 -32z m127 22 c12 -8 10 -10 -10 -10 -25 -1 -25
-1 -2 -10 30 -13 29 -40 -3 -40 -14 0 -25 4 -25 9 0 5 10 7 22 3 14 -3 19 -2
14 6 -4 7 -14 12 -22 12 -14 0 -19 21 -7 33 9 9 15 9 33 -3z"/>
<path d="M919 1223 c-6 -43 21 -109 48 -117 45 -14 93 -10 107 9 12 17 11 20
-14 34 -15 9 -49 31 -76 49 -49 32 -63 38 -65 25z"/>
<path d="M1240 1208 c-19 -12 -48 -33 -64 -45 -16 -13 -35 -22 -42 -19 -21 8
-17 -8 7 -30 21 -18 29 -19 95 -9 33 6 47 27 58 93 7 39 -5 41 -54 10z"/>
<path d="M1084 1073 c-13 -44 -11 -47 24 -49 35 -2 39 9 20 51 -15 33 -34 32
-44 -2z"/>
<path d="M1448 593 c-26 -34 -38 -93 -20 -93 23 0 77 93 68 116 -8 21 -18 17
-48 -23z"/>
<path d="M1300 605 c0 -8 4 -15 9 -15 5 0 14 7 21 15 10 13 9 15 -9 15 -12 0
-21 -6 -21 -15z"/>
<path d="M437 563 c-9 -26 -14 -49 -12 -52 7 -7 54 28 65 48 7 15 6 23 -6 35
-24 24 -30 20 -47 -31z"/>
<path d="M910 340 c0 -5 4 -10 9 -10 6 0 13 5 16 10 3 6 -1 10 -9 10 -9 0 -16
-4 -16 -10z"/>
<path d="M1040 330 c0 -11 7 -20 15 -20 8 0 15 9 15 20 0 11 -7 20 -15 20 -8
0 -15 -9 -15 -20z"/>
<path d="M1180 340 c0 -5 4 -10 9 -10 6 0 13 5 16 10 3 6 -1 10 -9 10 -9 0
-16 -4 -16 -10z"/>
<path d="M1 468 l-1 -468 483 1 c314 1 461 4 423 10 -224 33 -421 129 -587
287 -164 155 -263 341 -304 565 -12 64 -13 21 -14 -395z"/>
<path d="M2050 903 c0 -42 -46 -204 -80 -285 -132 -311 -444 -548 -790 -603
-78 -12 -43 -13 398 -14 l482 -1 0 465 c0 256 -2 465 -5 465 -3 0 -5 -12 -5
-27z"/>
</g>
</svg>
