<svg xmlns="http://www.w3.org/2000/svg"  viewBox="0 0 48 48" width="48px" height="48px"><path fill="#424242" d="M35.358,40.522c-0.512,0.092-0.246,0.556-0.484,0.836c-0.064-0.056-0.139-0.113-0.205-0.18 c-0.048-0.049-0.083-0.11-0.124-0.165c-0.039,0.071-0.08,0.141-0.116,0.214c-0.009,0.019,0.004,0.049-0.004,0.068 c-0.038,0.083-0.08,0.165-0.12,0.247c-0.05-0.077-0.105-0.151-0.148-0.233c-0.019-0.037-0.012-0.087-0.018-0.147 c-0.077-0.01-0.148-0.006-0.21-0.029c-0.365-0.134-0.41-0.092-0.376,0.341c0.005,0.059-0.026,0.122-0.041,0.183 c-0.032,0.001-0.064,0.002-0.096,0.003c-0.009-0.169-0.029-0.337-0.025-0.506c0.015-0.669,0.012-0.676-0.662-0.628 c-0.111,0.008-0.22,0.036-0.353,0.058c0,0.353,0.014,0.693-0.008,1.03c-0.007,0.11-0.112,0.213-0.173,0.319 c-0.038-0.013-0.077-0.025-0.115-0.038c-0.026-0.196-0.052-0.392-0.08-0.599c-0.11,0.019-0.239,0.041-0.424,0.074 c0-0.361,0-0.688,0-1.015c-0.041-0.009-0.081-0.017-0.122-0.026c-0.07,0.181-0.139,0.361-0.209,0.542 c-0.026-0.013-0.051-0.026-0.077-0.039c-0.058-0.454-0.114-0.908-0.177-1.362c-0.004-0.032-0.062-0.056-0.115-0.1 c-0.226,0.35-0.242,0.716-0.217,1.096c0.008,0.119-0.04,0.242-0.063,0.363c-0.124-0.066-0.297-0.101-0.365-0.204 c-0.46-0.694-0.897-1.403-1.345-2.106c-0.473-0.741-0.95-1.479-1.425-2.218c-0.029-0.046-0.062-0.089-0.092-0.134 c-0.032,0.012-0.063,0.024-0.095,0.036c0,2.097,0,4.194,0,6.291c-0.043,0.017-0.086,0.035-0.129,0.052 c-0.087-0.114-0.173-0.228-0.292-0.385c-0.16,0-0.387,0-0.634,0c0.013-0.108,0.038-0.195,0.029-0.278 c-0.022-0.211-0.068-0.386-0.364-0.303c-0.149,0.042-0.319,0.007-0.472,0.007c-0.017-0.037-0.036-0.058-0.035-0.078 c0.022-0.442-0.207-0.564-0.611-0.507c-0.182,0.026-0.372-0.007-0.559-0.002c-0.093,0.003-0.813,0.358-0.871,0.406 c-0.116,0.096-0.236,0.188-0.354,0.282c-0.034-0.02-0.068-0.04-0.102-0.059c0.035-0.109,0.069-0.217,0.109-0.341 c-0.031-0.127-0.103-0.294-0.108-0.464c-0.015-0.563-0.005-1.127-0.005-1.691c0-4.331,0-8.662,0-12.994c0-0.115,0-0.23,0-0.385 c0.153-0.008,2.842,0.011,4.052,0.017c1.145,0.005,2.294-0.072,3.433,0.006c1.657,0.114,3.105,0.712,4.09,2.15 c1.337,1.954,1.028,5.088-0.661,6.659c-0.533,0.496-1.283,0.875-2.159,1.069C32.884,37.29,34.113,38.896,35.358,40.522z M27.309,33.25c0.591-0.046,1.154-0.025,1.686-0.143c1.626-0.36,1.854-1.272,1.594-2.647c-0.046-0.242-0.21-0.502-0.395-0.671 c-0.829-0.755-1.862-0.658-2.884-0.685C27.309,30.494,27.309,31.822,27.309,33.25z"/><path fill="#424242" d="M21.823,15.815c1.235,1.571,2.448,3.114,3.699,4.705c-0.301,0.023-0.395,0.147-0.349,0.401 c0.018,0.101-0.072,0.221-0.113,0.332c-0.09-0.062-0.18-0.125-0.271-0.185c-0.044-0.029-0.096-0.078-0.135-0.07 c-0.04,0.008-0.085,0.07-0.097,0.116c-0.018,0.065,0.008,0.143-0.013,0.206c-0.021,0.064-0.075,0.118-0.114,0.177 c-0.04-0.058-0.09-0.112-0.117-0.176c-0.021-0.049-0.013-0.111-0.02-0.203c-0.185-0.01-0.363-0.02-0.555-0.031 c-0.016,0.182-0.03,0.343-0.044,0.504c-0.041,0-0.082,0-0.123,0.001c-0.011-0.237-0.045-0.477-0.027-0.712 c0.024-0.298-0.109-0.398-0.38-0.381c-0.104,0.006-0.208,0.014-0.311,0.018c-0.27,0.011-0.475,0.023-0.338,0.418 c0.084,0.242,0.016,0.537,0.016,0.871c-0.272-0.241-0.576-0.4-0.696-0.649c-0.111-0.229-0.024-0.553-0.024-0.859 c-0.055,0.013-0.188,0.043-0.388,0.089c-0.062-0.332-0.132-0.712-0.203-1.092c-0.037-0.012-0.073-0.023-0.11-0.035 c-0.088,0.167-0.22,0.326-0.253,0.503c-0.039,0.21,0.025,0.437,0.011,0.655c-0.008,0.122-0.084,0.239-0.13,0.358 c-0.111-0.065-0.263-0.103-0.326-0.199c-0.591-0.901-1.161-1.816-1.748-2.72c-0.348-0.536-0.869-1.281-1.227-1.811 c-0.041,0.009,0.033,4.301,0.033,6.444c-0.143-0.162-0.225-0.256-0.356-0.405c-0.16,0-0.399,0-0.653,0c0-0.177,0-0.324,0-0.507 c-0.282-0.022-0.555-0.044-0.822-0.065c-0.018-0.025-0.043-0.043-0.043-0.061c0.006-0.553,0.005-0.462-0.501-0.47 c-0.278-0.004-0.556-0.01-0.834,0.002c-0.205,0.009-0.505-0.107-0.464,0.296c-0.432,0.171-0.2,0.564-0.289,0.849 c-0.034,0.108-0.113,0.202-0.172,0.302c-0.059-0.109-0.169-0.218-0.17-0.327c-0.008-4.867-0.006-9.735-0.005-14.602 c0-0.336,0.008-0.672-0.004-1.007c-0.008-0.219,0.06-0.306,0.296-0.304c2.073,0.016,4.147,0.039,6.22,0.019 c0.94-0.009,1.853,0.107,2.723,0.436c1.617,0.61,2.638,1.753,2.915,3.491c0.205,1.29,0.099,2.538-0.605,3.681 c-0.639,1.038-1.546,1.7-2.753,1.934C21.92,15.757,21.892,15.78,21.823,15.815z M17.512,11.445c0,0.566-0.043,1.976,0.026,1.979 c0.741,0.034,1.653,0.034,2.344-0.304c0.698-0.341,1.012-0.893,0.997-1.671c-0.015-0.776-0.286-1.359-1.035-1.679 c-0.678-0.29-1.389-0.319-2.108-0.32c-0.191,0-0.227,0.016-0.227,0.016S17.512,10.867,17.512,11.445z"/><path fill="#424242" d="M44.889,39.085c-1.57,0-3.089,0-4.624,0c0-0.99,0-1.934,0-2.934c1.44,0,2.867,0,4.304,0 c0-1.243,0-2.431,0-3.674c-1.446,0-2.874,0-4.3,0c0-1.045,0-2.036,0-3.062c0.132,0,0.245,0,0.358,0 c1.274,0,4.152,0.017,4.152,0.017s-0.036-3.632-0.052-3.68c-2.932,0-5.85,0-8.803,0c0,0.166,0,0.291,0,0.417 c0,4.4-0.002,8.799,0.003,13.199c0.001,0.607,0.035,1.214,0.054,1.821l0.002,0.24c0,0,0,0.575,0,0.871c0.272,0,0.552,0,0.864,0 c0-0.302,0-0.598,0-0.884c0.061-0.027,0.092-0.051,0.123-0.052c0.173-0.006,0.347-0.008,0.521-0.008 c0.479,0,0.479,0.001,0.511,0.462c0.003,0.044,0.024,0.087,0.037,0.131c0.029-0.019,0.058-0.038,0.087-0.056 c0.015-0.104,0.03-0.207,0.047-0.327c0.243,0.045,0.449,0.035,0.555-0.228c0.024-0.059,0.128-0.117,0.197-0.12 c0.33-0.012,0.66-0.006,0.997-0.006c0,0.372,0,0.725,0,1.094c0.323,0,0.626,0,0.939,0c0.008-0.181-0.218-0.471,0.14-0.449 c0.379,0.023,0.822-0.187,1.165,0.243c0.046-0.264-0.005-0.523,0.061-0.748c0.059-0.2,0.249-0.361,0.417-0.587 c0.011,0.188,0.017,0.301,0.025,0.429c0.058-0.007,0.103-0.022,0.145-0.016c0.461,0.066,0.462,0.049,0.376-0.403 c-0.028-0.148,0.014-0.399,0.113-0.464c0.21-0.135,0.498-0.278,0.72-0.235c0.379,0.073,0.816,0.215,0.677,0.788 c-0.002,0.006,0.034,0.022,0.123,0.077C44.948,40.315,44.804,39.719,44.889,39.085z"/><path fill="#424242" d="M44.733,20.857c-0.054-0.199-0.048-0.47-0.178-0.578c-0.157-0.131-0.436-0.186-0.65-0.162 c-0.214,0.025-0.492,0.138-0.596,0.304c-0.103,0.164-0.022,0.442-0.022,0.7c-0.164,0.024-0.32,0.046-0.485,0.07 c-0.059-0.146-0.111-0.277-0.163-0.408c-0.027-0.002-0.054-0.004-0.081-0.006c-0.026,0.098-0.032,0.208-0.083,0.29 c-0.052,0.083-0.149,0.139-0.221,0.202c0,0.236,0,0.473,0,0.809c-0.386-0.487-0.883-0.175-1.299-0.343 c-0.098,0.54-0.212,0.594-0.913,0.437c0.055-0.078,0.104-0.146,0.132-0.186c-0.07-0.141-0.158-0.26-0.188-0.393 c-0.031-0.141-0.007-0.295-0.007-0.462c-0.495-0.073-0.943-0.027-1.32,0.352c-0.054,0.055-0.212,0.008-0.314,0.008 c-0.048,0.122-0.095,0.24-0.142,0.358c-0.027-0.007-0.054-0.014-0.081-0.021c-0.017-0.16-0.035-0.321-0.052-0.478 c-0.932-0.161-1.315,0.109-1.107,0.831c-0.289,0-0.563,0-0.894,0c0.035,0.026,0,0.007,0.002,0c0.076-0.242,0.009-0.481-0.005-0.721 c-0.014-0.266-0.01-0.532-0.01-0.798C36.054,15.988,36.04,6.181,36.04,6.181l8.738,0.011l-0.026,3.57c0,0-2.754,0.005-3.993-0.015 c-0.329-0.005-0.4,0.002-0.4,0.002l0.001,2.999c0,0,0.091-0.014,0.359-0.017c1.182-0.013,3.861-0.012,3.861-0.012l0.023,3.564 l-4.244-0.003l-0.001,2.851l4.559-0.03c0,0,0.006,1.16-0.012,1.519c-0.004,0.088-0.051,0.174-0.078,0.26 C44.796,20.873,44.765,20.865,44.733,20.857z"/><path fill="#424242" d="M32.408,20.824c0.041,0.115,0.071,0.198,0.109,0.304c-0.104,0.027-0.187,0.049-0.276,0.072 c0,0.251,0,0.498,0,0.694c-0.351-0.053-0.698-0.119-1.048-0.145c-0.068-0.005-0.208,0.146-0.209,0.227 c-0.004,0.231-0.122,0.277-0.31,0.268c-0.046-0.002-0.093-0.005-0.139-0.005c-0.534-0.002-0.525-0.002-0.518-0.545 c0.002-0.168-0.054-0.337-0.082-0.503c-0.505-0.129-1.393,0.18-1.8,0.65c-0.026-0.177-0.047-0.318-0.072-0.493 c-0.342,0-0.69,0-1.052,0c-0.019,0.291-0.038,0.572-0.056,0.847c-0.564,0.083-0.57,0.082-0.675-0.178 c-0.046,0.076-0.089,0.147-0.14,0.232c-0.044-0.042-0.087-0.063-0.087-0.085c-0.007-0.59-0.001-1.18-0.016-1.77 c-0.007-0.26-0.01-0.499,0.197-0.704c0.137-0.136,0.177-0.298-0.047-0.425c-0.063-0.036-0.115-0.132-0.126-0.208 c-0.024-0.159-0.023-0.323-0.023-0.484c0.007-3.843,0.024-12.402,0.024-12.402s4.02,0.051,5.606,0.055 c0.928,0.002,1.855-0.013,2.783-0.039c0.276-0.008,0.39,0.054,0.385,0.358c-0.018,0.96-0.015,1.922-0.002,2.882 c0.004,0.264-0.084,0.334-0.339,0.332c-1.228-0.011-2.456-0.005-3.683-0.005c-0.125,0-0.251,0-0.447,0 c0,0.534,0.024,2.978,0.024,2.978l4.249,0.039l-0.019,3.514l-4.253-0.014l0,2.841l4.543-0.046c0,0-0.007,1.319-0.007,1.787 c-0.037,0.009-0.073,0.018-0.11,0.027c-0.041-0.075-0.093-0.147-0.119-0.227c-0.041-0.124-0.029-0.333-0.102-0.366 c-0.213-0.097-0.467-0.194-0.689-0.165c-0.559,0.071-0.576,0.123-0.578,0.675c0,0.114,0,0.228,0,0.369c-0.197,0-0.363,0-0.541,0 C32.665,21.044,32.811,20.676,32.408,20.824z"/><path fill="#424242" d="M2.921,25.777c3.154,0,6.279,0,9.434,0c0,1.321,0,2.631,0,3.988c-1.704,0-3.399,0-5.113,0 c0,0.933,0,1.819,0,2.755c1.556,0,3.1,0,4.666,0c0,1.213,0,2.377,0,3.604c-1.541,0-3.085,0-4.651,0 c-0.023,0.248-0.065,0.696-0.065,0.696l-0.008,0.078c0,0,0,2.992,0,4.514c-0.504,0.101-0.356,0.532-0.399,0.902 c-0.452-0.024-0.906-0.044-1.168,0.479c-0.004-0.301-0.153-0.564,0.072-0.774c-0.033-0.113-0.126-0.273-0.116-0.427 c0.042-0.649-0.092-0.807-0.727-0.781c-0.102,0.004-0.203,0.029-0.357,0.052c0-0.455,0-0.896,0-1.361 c-0.252-0.015-0.454-0.026-0.673-0.039c-0.062-0.191,0.022-0.498-0.35-0.422c-0.013-0.194-0.024-0.361-0.035-0.528 c-0.03-0.003-0.061-0.007-0.091-0.01c-0.023,0.163-0.047,0.327-0.075,0.524c-0.101,0.008-0.21,0.018-0.343,0.029 C2.921,34.626,2.921,30.221,2.921,25.777z"/><path fill="#424242" d="M7.328,10.092c0,0.871,0.013,2.669,0.013,2.669s2.822,0.011,4.085,0.011c0.171,0,0.342,0,0.561,0 c0,0.311,0,0.585,0,0.859c0,0.764-0.006,2.652-0.006,2.652l-4.662-0.008c0,0,0.009,3.212-0.022,4.623 c-0.004,0.16,0.143,0.505-0.266,0.532c-0.037,0.002-0.074,0.281-0.077,0.432c-0.005,0.241,0.029,0.482,0.025,0.723 c-0.001,0.07-0.077,0.139-0.118,0.209c-0.053-0.063-0.133-0.119-0.153-0.192c-0.03-0.107-0.017-0.226-0.022-0.34 c-0.563-0.068-0.562-0.067-0.745,0.419c-0.019,0.05-0.092,0.078-0.14,0.117c-0.052-0.077-0.145-0.152-0.148-0.23 c-0.01-0.368,0.004-0.737,0.01-1.105c0.01-0.612-0.278-0.824-0.881-0.646c-0.041,0.012-0.082,0.027-0.165,0.056 c0-0.464,0-0.899,0-1.356c-0.227-0.019-0.42-0.036-0.612-0.052c0.02-0.026,0.039-0.052,0.059-0.078 c-0.125-0.113-0.279-0.207-0.368-0.343c-0.088-0.136-0.11-0.314-0.223-0.513c-0.041,0.164-0.082,0.329-0.131,0.524 c-0.197,0.062-0.329,0.032-0.329-0.266c0.007-3.89,0.09-12.494,0.09-12.494l9.333-0.069l-0.026,3.872c0,0-3.192-0.005-4.641-0.005 C7.634,10.092,7.499,10.092,7.328,10.092z"/><path fill="#ff9800" d="M20.373,36.2c-0.09-0.237-0.348-0.093-0.53-0.121c-0.068-0.011-0.139-0.009-0.208-0.002	c-0.244,0.028-0.319-0.081-0.318-0.319c0.011-2.406,0.019-4.813,0.014-7.219c-0.001-0.703,0.08-1.412-0.081-2.11	c-0.241-1.043-0.491-2.083-0.728-3.127c-0.062-0.273-0.202-0.251-0.369-0.123c-0.381,0.292-0.748,0.6-1.04,0.989	c-0.588,0.783-1.065,1.654-1.198,2.603c-0.142,1.01-0.041,2.055-0.046,3.085c-0.001,0.187,0.087,0.188,0.21,0.094	c0.145-0.111,0.291-0.223,0.43-0.341c0.15-0.128,0.19-0.1,0.224,0.096c0.078,0.441-0.116,0.722-0.47,0.939	c-0.165,0.101-0.326,0.216-0.39,0.413c-0.021,0.065-0.035,0.144,0.023,0.197c0.076,0.069,0.13-0.018,0.175-0.052	c0.156-0.117,0.298-0.252,0.452-0.372c0.061-0.048,0.141-0.163,0.211-0.002c0.096,0.222-0.023,0.705-0.219,0.861	c-0.152,0.121-0.308,0.237-0.466,0.35c-0.111,0.08-0.174,0.184-0.182,0.319c-0.004,0.067-0.03,0.148,0.036,0.192	c0.071,0.048,0.13-0.012,0.182-0.056c0.149-0.128,0.295-0.259,0.443-0.388c0.06-0.052,0.125-0.121,0.192-0.008	c0.089,0.151-0.03,0.748-0.174,0.864c-0.196,0.159-0.4,0.309-0.591,0.473c-0.122,0.105-0.134,0.271-0.039,0.373	c0.084,0.091,0.173-0.046,0.259-0.096c0.184-0.108,0.285-0.327,0.508-0.388c0.138,0.649,0.083,0.752-0.444,1.116	c-0.232,0.16-0.446,0.371-0.32,0.748c0.223-0.172,0.427-0.329,0.636-0.49c0.14,0.222,0.286,0.487,0.109,0.679	c-0.35,0.378-0.691,0.836-1.33,0.698c-0.11-0.024-0.231-0.003-0.347,0c-0.088,0.002-0.181,0.041-0.181,0.129	c0,0.294-0.128,0.627,0.107,0.866c0.298,0.303,0.635,0.568,0.958,0.844v1.283c-0.001,0.09,0,0.18-0.005,0.27	c-0.001,0.021,0.004,0.035,0.005,0.052v0.428c0,0.018-0.002,0.035-0.001,0.054c0,0.002,0.001,0.005,0.001,0.007v1.056	c-0.003,0.128-0.003,0.257,0,0.385v0.444l0.005-0.003c0,0.041,0.001,0.081,0,0.122c-0.005,0.166,0.096,0.218,0.209,0.078	c0.122-0.152,0.217-0.276,0.39-0.056c0.055,0.07,0.153,0.031,0.228,0.001c0.391-0.154,0.578-0.012,0.575,0.428	c-0.005,0.717-0.005,1.434-0.001,2.15c0.001,0.144-0.035,0.312,0.152,0.386c0.065,0,0.131,0,0.197,0.001	c0.07-0.078,0.053-0.173,0.053-0.264c0-0.971,0.005-1.941-0.004-2.912c-0.003-0.33,0.016-0.641,0.241-0.912	c0.065-0.079,0.083-0.191,0.222-0.167c0.155,0.026,0.121,0.147,0.122,0.243c0.003,0.37,0,0.741-0.001,1.111c0,0.511,0,1.021,0,1.571	c0.398-0.207,0.509-0.569,0.772-0.784c0.196-0.161,0.284-0.342,0.283-0.593c-0.001-1.296,0.011-2.592,0.009-3.888	c-0.001-0.3,0.105-0.517,0.334-0.715c0.232-0.202,0.474-0.403,0.651-0.662C20.486,36.764,20.475,36.467,20.373,36.2z"/></svg>